HIERARCHY
ROOT Hips
{
	OFFSET 0.000000 0.000000 0.000000
	CHANNELS 6 Xposition Yposition Zposition Zrotation Xrotation Yrotation
	JOINT Spine1
	{
		OFFSET 0.000000 0.000001 -2.776947
		CHANNELS 6 Xposition Yposition Zposition Zrotation Xrotation Yrotation
		JOINT Neck
		{
			OFFSET 0.000000 0.000001 -2.213880
			CHANNELS 6 Xposition Yposition Zposition Zrotation Xrotation Yrotation
			JOINT Head
			{
				OFFSET 0.000000 0.181636 -1.407680
				CHANNELS 6 Xposition Yposition Zposition Zrotation Xrotation Yrotation
				End Site
				{
					OFFSET 0.000000 0.000001 -1.816356
				}
			}
		}
		JOINT LeftShoulder
		{
			OFFSET 0.365767 -0.048012 -1.787590
			CHANNELS 6 Xposition Yposition Zposition Zrotation Xrotation Yrotation
			JOINT LeftArm
			{
				OFFSET 1.305160 0.000000 0.000000
				CHANNELS 6 Xposition Yposition Zposition Zrotation Xrotation Yrotation
				JOINT LeftForeArm
				{
					OFFSET 2.559210 0.000000 0.000000
					CHANNELS 6 Xposition Yposition Zposition Zrotation Xrotation Yrotation
					JOINT LeftHand
					{
						OFFSET 2.378449 0.000000 0.000000
						CHANNELS 6 Xposition Yposition Zposition Zrotation Xrotation Yrotation
						End Site
						{
							OFFSET 1.362267 0.000000 0.000000
						}
					}
				}
			}
		}
		JOINT RightShoulder
		{
			OFFSET -0.360721 -0.048012 -1.787590
			CHANNELS 6 Xposition Yposition Zposition Zrotation Xrotation Yrotation
			JOINT RightArm
			{
				OFFSET -1.305160 0.000000 0.000000
				CHANNELS 6 Xposition Yposition Zposition Zrotation Xrotation Yrotation
				JOINT RightForeArm
				{
					OFFSET -2.559210 0.000000 0.000000
					CHANNELS 6 Xposition Yposition Zposition Zrotation Xrotation Yrotation
					JOINT RightHand
					{
						OFFSET -2.378450 0.000000 0.000000
						CHANNELS 6 Xposition Yposition Zposition Zrotation Xrotation Yrotation
						End Site
						{
							OFFSET -1.362267 0.000000 0.000000
						}
					}
				}
			}
		}
	}
	JOINT LeftUpLeg
	{
		OFFSET 0.908180 0.000000 0.000000
		CHANNELS 6 Xposition Yposition Zposition Zrotation Xrotation Yrotation
		JOINT LeftLeg
		{
			OFFSET 0.000000 -0.000002 3.819490
			CHANNELS 6 Xposition Yposition Zposition Zrotation Xrotation Yrotation
			JOINT LeftFoot
			{
				OFFSET 0.000000 -0.000002 4.004300
				CHANNELS 6 Xposition Yposition Zposition Zrotation Xrotation Yrotation
				JOINT LeftToeBase
				{
					OFFSET 0.000000 1.362270 0.590317
					CHANNELS 6 Xposition Yposition Zposition Zrotation Xrotation Yrotation
					End Site
					{
						OFFSET 0.000000 0.363271 0.000000
					}
				}
			}
		}
	}
	JOINT RightUpLeg
	{
		OFFSET -0.908180 0.000000 0.000000
		CHANNELS 6 Xposition Yposition Zposition Zrotation Xrotation Yrotation
		JOINT RightLeg
		{
			OFFSET 0.000000 -0.000002 3.819490
			CHANNELS 6 Xposition Yposition Zposition Zrotation Xrotation Yrotation
			JOINT RightFoot
			{
				OFFSET 0.000000 -0.000002 4.004300
				CHANNELS 6 Xposition Yposition Zposition Zrotation Xrotation Yrotation
				JOINT RightToeBase
				{
					OFFSET 0.000000 1.362270 0.590317
					CHANNELS 6 Xposition Yposition Zposition Zrotation Xrotation Yrotation
					End Site
					{
						OFFSET 0.000000 0.363271 0.000000
					}
				}
			}
		}
	}
}
MOTION
Frames: 5
Frame Time: 0.041667
-0.336805 0.186046 -7.463962 -0.502192 17.795230 2.356180 -0.000000 0.000000 -2.776948 4.259463 -19.793939 8.684626 0.000000 0.000001 -2.213881 -1.279993 13.486033 -2.484066 -0.000000 0.181636 -1.407679 -1.746994 5.288086 -5.717468 0.365766 -0.048012 -1.787590 -0.709392 -8.164539 18.298697 1.305160 0.000001 -0.000001 11.761391 -10.682601 -4.206972 2.559210 -0.000001 -0.000000 -2.127313 -4.450337 -3.169323 2.378447 0.000002 -0.000003 -18.336838 -4.875008 2.275572 -0.360721 -0.048012 -1.787591 4.643700 -1.094709 -14.447172 -1.305161 0.000000 0.000000 -24.566783 18.839451 26.725856 -2.559208 0.000001 0.000002 -78.051556 38.184408 -37.816797 -2.378450 0.000001 0.000001 6.521722 6.805898 -32.010406 0.908180 -0.000000 -0.000001 -17.241619 -38.298025 14.330210 -0.000000 -0.000001 3.819489 -15.033426 33.966876 -3.548431 -0.000001 -0.000002 4.004301 -17.442703 3.343602 -6.407313 -0.000000 1.362268 0.590316 -0.000004 -0.000002 -0.000001 -0.908180 -0.000000 -0.000000 -13.169685 -25.665051 -36.713640 0.000001 -0.000002 3.819488 20.552627 30.775490 15.453858 0.000001 -0.000002 4.004302 26.684839 -4.183695 12.193739 -0.000000 1.362271 0.590317 0.000006 -0.000000 0.000000 
-0.336684 0.188086 -7.464567 -0.546356 17.759108 2.341669 0.000000 0.000002 -2.776945 4.299320 -19.766357 8.697361 -0.000000 0.000001 -2.213880 -1.289222 13.483829 -2.488180 0.000000 0.181637 -1.407681 -1.754757 5.351417 -5.735395 0.365766 -0.048012 -1.787590 -0.695258 -8.173358 18.304714 1.305162 -0.000000 -0.000003 11.774237 -10.733470 -4.239618 2.559209 -0.000000 -0.000001 -2.152656 -4.429735 -3.175798 2.378448 0.000002 -0.000001 -18.327003 -4.853875 2.268272 -0.360721 -0.048011 -1.787590 4.651819 -1.085283 -14.452329 -1.305161 0.000001 -0.000000 -24.568112 18.785763 26.754705 -2.559208 -0.000001 -0.000000 -78.115897 38.170177 -37.730330 -2.378448 0.000003 0.000001 6.495074 6.836987 -32.065587 0.908180 0.000001 0.000001 -17.182874 -38.258065 14.371864 0.000000 -0.000001 3.819488 -15.029941 33.946245 -3.550080 -0.000000 -0.000002 4.004300 -17.431249 3.352618 -6.411144 -0.000000 1.362270 0.590318 0.000004 0.000001 -0.000003 -0.908180 0.000000 0.000001 -13.117585 -25.592429 -36.663909 0.000001 -0.000002 3.819490 20.539839 30.737350 15.459452 0.000001 -0.000002 4.004300 26.710478 -4.178812 12.214222 -0.000000 1.362270 0.590316 0.000003 -0.000004 0.000001 
-0.336433 0.188876 -7.465036 -0.554840 17.756928 2.332935 0.000000 0.000000 -2.776947 4.296803 -19.772513 8.688690 -0.000000 0.000001 -2.213882 -1.295011 13.476137 -2.462933 0.000000 0.181637 -1.407682 -1.762848 5.421110 -5.800605 0.365767 -0.048012 -1.787591 -0.682089 -8.177814 18.319544 1.305160 0.000001 -0.000003 11.789245 -10.764890 -4.278383 2.559211 -0.000000 0.000001 -2.173715 -4.398386 -3.167420 2.378451 0.000000 -0.000001 -18.326011 -4.823092 2.269134 -0.360721 -0.048012 -1.787590 4.651354 -1.090218 -14.438911 -1.305160 0.000000 -0.000001 -24.569020 18.752040 26.785007 -2.559210 0.000000 -0.000003 -78.149317 38.183889 -37.675983 -2.378451 0.000001 -0.000001 6.458259 6.900353 -32.013209 0.908180 -0.000001 0.000000 -17.261560 -38.273692 14.324698 -0.000001 -0.000001 3.819489 -14.970579 33.948526 -3.537959 -0.000000 -0.000002 4.004301 -17.417874 3.355387 -6.413150 -0.000000 1.362270 0.590317 0.000002 -0.000001 0.000002 -0.908180 -0.000001 -0.000001 -13.108494 -25.586689 -36.643036 0.000001 -0.000002 3.819489 20.519145 30.732747 15.448112 -0.000000 -0.000002 4.004302 26.717687 -4.175373 12.256874 -0.000000 1.362270 0.590317 0.000005 -0.000003 0.000001 
-0.336122 0.189713 -7.465557 -0.570567 17.757363 2.330680 0.000000 0.000001 -2.776949 4.304611 -19.773799 8.694888 -0.000000 0.000001 -2.213881 -1.309704 13.463049 -2.484875 0.000000 0.181636 -1.407681 -1.775381 5.482868 -5.813830 0.365765 -0.048012 -1.787590 -0.645622 -8.179777 18.311160 1.305161 -0.000000 -0.000002 11.784503 -10.833859 -4.297923 2.559210 0.000000 0.000001 -2.200530 -4.369450 -3.189762 2.378450 0.000000 -0.000001 -18.306203 -4.798190 2.289343 -0.360721 -0.048012 -1.787590 4.663531 -1.091913 -14.451357 -1.305162 0.000001 -0.000000 -24.521600 18.654534 26.787881 -2.559209 0.000001 -0.000004 -78.296480 38.171424 -37.495549 -2.378451 0.000001 -0.000003 6.462138 6.969213 -32.029131 0.908180 -0.000000 -0.000003 -17.247046 -38.268303 14.326001 -0.000001 -0.000002 3.819490 -14.969090 33.943008 -3.536977 0.000000 -0.000002 4.004301 -17.417829 3.359368 -6.367397 -0.000000 1.362269 0.590317 0.000002 0.000000 0.000001 -0.908180 0.000000 -0.000001 -13.098168 -25.574499 -36.628614 -0.000001 -0.000002 3.819489 20.544480 30.723540 15.429192 0.000001 -0.000002 4.004300 26.723440 -4.162085 12.246322 -0.000000 1.362269 0.590317 0.000005 -0.000002 0.000001 
-0.336073 0.190795 -7.466215 -0.576527 17.748375 2.332954 0.000000 0.000001 -2.776944 4.288372 -19.770954 8.681894 -0.000000 0.000001 -2.213881 -1.300175 13.457504 -2.489630 -0.000000 0.181637 -1.407682 -1.767135 5.521318 -5.855395 0.365766 -0.048012 -1.787592 -0.641198 -8.175457 18.336118 1.305159 0.000000 0.000000 11.820409 -10.879354 -4.350833 2.559211 -0.000000 -0.000002 -2.222331 -4.337104 -3.206885 2.378448 0.000002 -0.000001 -18.317319 -4.766520 2.286192 -0.360721 -0.048012 -1.787593 4.691750 -1.098926 -14.452154 -1.305161 0.000000 0.000004 -24.541985 18.671084 26.818792 -2.559210 -0.000000 -0.000002 -78.277369 38.203809 -37.527453 -2.378451 0.000001 -0.000001 6.465015 6.990569 -32.014026 0.908180 -0.000000 0.000001 -17.259736 -38.246570 14.311097 -0.000000 -0.000001 3.819490 -14.975460 33.920325 -3.520137 0.000000 -0.000002 4.004300 -17.401898 3.381426 -6.381942 -0.000000 1.362269 0.590317 0.000002 -0.000004 0.000000 -0.908180 -0.000000 0.000002 -13.090950 -25.567707 -36.616118 0.000000 -0.000002 3.819489 20.560746 30.730206 15.405968 0.000001 -0.000002 4.004302 26.731960 -4.137052 12.208621 -0.000000 1.362270 0.590317 0.000010 -0.000000 -0.000003 
